<svg width="24" height="27" viewBox="0 0 24 27" fill="none" xmlns="http://www.w3.org/2000/svg">
<path fill-rule="evenodd" clip-rule="evenodd" d="M9.95175 27C9.33525 27 8.8335 26.4982 8.8335 25.8806C8.8335 25.263 9.33525 24.7612 9.95175 24.7612H12.2096V23.0243C9.06525 22.7633 6.13237 21.4099 3.90488 19.1812C1.38713 16.6635 0 13.3166 0 9.75488C0 6.19313 1.38713 2.84512 3.90488 0.3285C4.11637 0.117 4.39762 0 4.69688 0C4.995 0 5.27625 0.117 5.48775 0.3285C5.922 0.765 5.922 1.47487 5.48887 1.91025C3.393 4.00612 2.23988 6.7905 2.23988 9.75488C2.23988 12.7181 3.393 15.5025 5.48775 17.5984C7.5825 19.692 10.368 20.8451 13.3301 20.8451C16.2934 20.8451 19.0778 19.692 21.1736 17.5984C21.3851 17.3857 21.6664 17.271 21.9656 17.271C22.2615 17.271 22.5439 17.3857 22.7554 17.5972C22.968 17.8099 23.085 18.0911 23.0839 18.3915C23.0839 18.6896 22.9669 18.9709 22.7554 19.1824C20.5268 21.4099 17.5939 22.7633 14.4484 23.0243V24.7612H16.7085C17.3272 24.7612 17.829 25.263 17.829 25.8806C17.829 26.4982 17.3272 27 16.7085 27H9.95175Z" fill="#22C3CA"/>
<path fill-rule="evenodd" clip-rule="evenodd" d="M12.978 2.23762C8.91788 2.23762 5.61375 5.54288 5.61375 9.60525C5.61375 13.6676 8.91788 16.9729 12.978 16.9729C17.0415 16.9729 20.3479 13.6676 20.3479 9.60525C20.3479 5.54288 17.0415 2.23762 12.978 2.23762ZM12.978 19.2105C7.68262 19.2105 3.375 14.9018 3.375 9.60525C3.375 4.30875 7.68262 0 12.978 0C18.2756 0 22.5866 4.30875 22.5866 9.60525C22.5866 14.9018 18.2756 19.2105 12.978 19.2105Z" fill="#22C3CA"/>
</svg>
